<?xml version="1.0" encoding="UTF-8"?>
<svg xmlns="http://www.w3.org/2000/svg" version="1.1" viewBox="0 0 400 400">
  <defs>
    <style>
      .cls-1 {
        fill: #1d1d1b;
      }
    </style>
  </defs>
  <!-- Generator: Adobe Illustrator 28.6.0, SVG Export Plug-In . SVG Version: 1.2.0 Build 709)  -->
  <g>
    <g id="Capa_1">
      <path class="cls-1" d="M363.29,376.08h-39.59c-7.19,0-13.04-5.85-13.04-13.04v-39.34h-6.1v39.34c0,7.19-5.85,13.04-13.04,13.04h-39.59c-7.19,0-13.04-5.85-13.04-13.04v-39.34h-6.1v39.34c0,7.19-5.85,13.04-13.04,13.04h-39.59c-7.19,0-13.04-5.85-13.04-13.04v-39.34h-6.1v39.34c0,7.19-5.85,13.04-13.04,13.04h-39.59c-7.19,0-13.04-5.85-13.04-13.04v-39.34h-6.1v39.34c0,7.19-5.85,13.04-13.04,13.04h-39.59c-7.19,0-13.04-5.85-13.04-13.04v-39.34h-10.6c-7.19,0-13.04-5.85-13.04-13.04v-31.67c0-7.19,5.85-13.04,13.04-13.04h10.6v-98.41h-10.6c-7.19,0-13.04-5.85-13.04-13.04v-31.68c0-7.19,5.85-13.04,13.04-13.04h10.6v-43.72c0-5.56,3.5-10.32,8.41-12.19l13.13-22.74c2.27-3.93,6.59-6.36,11.29-6.36s9.03,2.44,11.29,6.36l13.13,22.74c4.91,1.87,8.41,6.63,8.41,12.19v43.72h6.1v-43.72c0-5.56,3.5-10.32,8.41-12.19l13.13-22.74c2.27-3.93,6.59-6.36,11.29-6.36s9.03,2.44,11.29,6.36l13.13,22.74c4.91,1.87,8.41,6.63,8.41,12.19v43.72h6.1v-43.72c0-5.56,3.5-10.32,8.41-12.19l13.13-22.74c2.27-3.93,6.59-6.36,11.29-6.36s9.03,2.44,11.29,6.36l13.13,22.74c4.91,1.87,8.41,6.63,8.41,12.19v43.72h6.1v-43.72c0-5.56,3.5-10.32,8.41-12.19l13.13-22.74c2.27-3.93,6.59-6.36,11.29-6.36s9.03,2.44,11.29,6.36l13.13,22.74c4.91,1.87,8.41,6.63,8.41,12.19v43.72h6.1v-43.72c0-5.56,3.5-10.32,8.41-12.19l13.13-22.74c2.27-3.93,6.59-6.36,11.29-6.36s9.03,2.44,11.29,6.36l13.13,22.74c4.91,1.87,8.41,6.63,8.41,12.19v43.72h10.6c7.19,0,13.04,5.85,13.04,13.04v31.68c0,7.19-5.85,13.04-13.04,13.04h-10.6v98.41h10.6c7.19,0,13.04,5.85,13.04,13.04v31.67c0,7.19-5.85,13.04-13.04,13.04h-10.6v39.34c0,7.19-5.85,13.04-13.04,13.04ZM328.04,358.7h30.9v-52.37h23.64v-22.98h-23.64v-133.17h23.64v-22.99h-23.64v-56.75h-1.55l-13.9-24.07-13.9,24.07h-1.55v56.75h-40.86v-56.75h-1.55l-13.9-24.07-13.9,24.07h-1.55v56.75h-40.86v-56.75h-1.55l-13.9-24.07-13.9,24.07h-1.55v56.75h-40.86v-56.75h-1.55l-13.9-24.07-13.9,24.07h-1.55v56.75h-40.86v-56.75h-1.55l-13.9-24.07-13.9,24.07h-1.55v56.75h-23.64v22.99h23.64v133.17h-23.64v22.98h23.64v52.37h30.9v-52.37h40.86v52.37h30.9v-52.37h40.86v52.37h30.9v-52.37h40.86v52.37h30.9v-52.37h40.86v52.37ZM328.04,283.34h-40.86v-133.17h40.86v133.17ZM304.56,265.96h6.1v-98.41h-6.1v98.41ZM256.28,283.34h-40.86v-133.17h40.86v133.17ZM232.79,265.96h6.1v-98.41h-6.1v98.41ZM184.51,283.34h-40.86v-133.17h40.86v133.17ZM161.03,265.96h6.1v-98.41h-6.1v98.41ZM112.75,283.34h-40.86v-133.17h40.86v133.17ZM89.26,265.96h6.1v-98.41h-6.1v98.41Z"/>
    </g>
  </g>
</svg>